<svg xmlns="http://www.w3.org/2000/svg" xmlns:xlink="http://www.w3.org/1999/xlink" width="19" height="21" viewBox="0 0 19 21"><defs><clipPath id="a"><rect width="19" height="21" fill="none"/></clipPath></defs><g clip-path="url(#a)"><rect width="19" height="19" transform="translate(0 0)" fill="none"/><path d="M19.412,18.615l-4.029-4.236a9.09,9.09,0,0,0,1.709-5.392A8.721,8.721,0,0,0,8.546,0,8.721,8.721,0,0,0,0,8.986a8.721,8.721,0,0,0,8.546,8.986,8.1,8.1,0,0,0,5.128-1.8L17.7,20.412ZM2.442,8.986a6.207,6.207,0,0,1,6.1-6.419,6.207,6.207,0,0,1,6.1,6.419,6.207,6.207,0,0,1-6.1,6.419A6.207,6.207,0,0,1,2.442,8.986Z" fill="#fff"/></g></svg>